<svg xmlns="http://www.w3.org/2000/svg" xmlns:xlink="http://www.w3.org/1999/xlink" width="370" height="310" viewBox="0 0 370 310">
  <defs>
    <clipPath id="clip-path">
      <rect id="Rectángulo_1511" data-name="Rectángulo 1511" width="370" height="310" transform="translate(700 3360)" fill="#fff" stroke="#707070" stroke-width="1"/>
    </clipPath>
  </defs>
  <g id="Enmascarar_grupo_137" data-name="Enmascarar grupo 137" transform="translate(-700 -3360)" clip-path="url(#clip-path)">
    <g id="Grupo_3615" data-name="Grupo 3615" transform="translate(-3794.267 435.109)" opacity="0.1">
      <path id="Trazado_3808" data-name="Trazado 3808" d="M-1483.039,293.484h-2.389V282.975c9.465-9.587,8.393-26.689,8.218-28.858v-17.91a10.479,10.479,0,0,0-10.464-10.465h-.4a10.379,10.379,0,0,0-5.03,1.3,10.416,10.416,0,0,0-8.183-3.951h-.4a10.381,10.381,0,0,0-4.918,1.211,10.431,10.431,0,0,0-8-3.731h-.4a10.465,10.465,0,0,0-4.154.861,10.446,10.446,0,0,0-8.727-4.715h-.4a10.465,10.465,0,0,0-10.456,10.456v10.079c-4.2-.448-7.489.351-9.964,2.432-5.382,4.5-4.847,13.442-4.321,22.089.711,11.8,11.238,21.7,15.294,25.091v6.62h-2.02a3.849,3.849,0,0,0-3.855,3.854V376.5a3.854,3.854,0,0,0,3.855,3.854h56.725a3.852,3.852,0,0,0,3.853-3.854V297.338A3.847,3.847,0,0,0-1483.039,293.484Zm-62.318-32.177c-.369-6.1-.825-13.7,1.582-15.724.886-.746,2.632-.931,5.021-.562v5.224a3.846,3.846,0,0,0,3.845,3.854,3.846,3.846,0,0,0,3.845-3.854V227.173a2.769,2.769,0,0,1,2.765-2.757h.4a2.767,2.767,0,0,1,2.757,2.757v14.864a3.845,3.845,0,0,0,3.845,3.845,3.853,3.853,0,0,0,3.855-3.845V229.719a2.755,2.755,0,0,1,2.423-1.449h.4a2.764,2.764,0,0,1,2.757,2.766v11a3.844,3.844,0,0,0,3.845,3.845,3.851,3.851,0,0,0,3.853-3.845v-9.745a2.732,2.732,0,0,1,2.459-1.5h.4a2.762,2.762,0,0,1,2.758,2.757v10.386a3.849,3.849,0,0,0,3.845,3.845,3.845,3.845,0,0,0,3.853-3.845v-7.726a2.763,2.763,0,0,1,2.758-2.757h.4a2.768,2.768,0,0,1,2.764,2.757v18.077c0,.123.01.255.017.369.441,4.609.072,17.84-6.881,23.7a3.906,3.906,0,0,0-1.354,2.941v12.195h-36.925V285.02a3.844,3.844,0,0,0-1.554-3.082C-1531.731,281.834-1544.7,272.045-1545.357,261.307Zm58.472,111.35h-49.033V320.99h49.033Zm0-59.367h-49.033V301.183h49.033Z" transform="translate(6165.353 2916.627)" fill="#161615"/>
      <path id="Trazado_3809" data-name="Trazado 3809" d="M-1457.293,270.395l17.6,7.427a10.008,10.008,0,0,0,3.952.808,10.078,10.078,0,0,0,3.809-.746,10.083,10.083,0,0,0,5.532-5.452l2.142-5.074a10.083,10.083,0,0,0,.053-7.761,10.112,10.112,0,0,0-5.452-5.531l-20.912-8.788.974-3.485.026-.14a10.373,10.373,0,0,0-1.274-7.9,10.394,10.394,0,0,0-6.478-4.688l-.4-.1a10.292,10.292,0,0,0-5.2.105,10.437,10.437,0,0,0-7.05-5.751l-.386-.088a10.512,10.512,0,0,0-5.066.053,8.189,8.189,0,0,0-.439-.79,10.368,10.368,0,0,0-6.478-4.688l-.4-.1a10.615,10.615,0,0,0-4.233-.132,10.154,10.154,0,0,0-.921-1.905,10.424,10.424,0,0,0-6.5-4.7l-.386-.088a10.4,10.4,0,0,0-7.9,1.273,10.38,10.38,0,0,0-4.671,6.427l-.685,2.546-27.112-11.387-.044-.018-.211-.079-.158-.053-.184-.044-.192-.044-.158-.026a2.244,2.244,0,0,0-.228-.026l-.062-.009-25.777-1.659a3.839,3.839,0,0,0-3.766,2.283,3.869,3.869,0,0,0,.825,4.32l18.12,17.7.019.009.008.009.036.026a2.558,2.558,0,0,0,.228.211l.131.1.123.088.034.026.2.123a10.481,10.481,0,0,0,1.546.825l16.477,6.962a81.216,81.216,0,0,0-2.625,11.624c-2.1,12.072,6.515,24.591,9.4,28.384l.017,17.5h-3.2a3.851,3.851,0,0,0-3.845,3.854v144.2a3.843,3.843,0,0,0,3.845,3.845h56.732a3.844,3.844,0,0,0,3.845-3.845V349.7a3.845,3.845,0,0,0-3.845-3.845,3.853,3.853,0,0,0-3.855,3.845v92.474h-49.032V325.468h49.032v10.693a3.853,3.853,0,0,0,3.855,3.845,3.845,3.845,0,0,0,3.845-3.845V301.825a3.852,3.852,0,0,0-3.845-3.854h-1.615l.034-9.938c6.5-4.311,10.15-11.791,12.124-17.638m20.423-11,4.222,1.773a2.411,2.411,0,0,1,1.316,1.326,2.46,2.46,0,0,1-.017,1.87l-2.141,5.074a2.452,2.452,0,0,1-1.335,1.317,2.464,2.464,0,0,1-1.87-.018l-4.5-1.905Zm-18.377,2.836,2.617-9.464,8.657,3.643-4.321,9.429-7.058-2.985.1-.623m-90.173-39.394-6.848-6.7,9.737.623Zm6.321,4.645,4.38-9.219,24.679,10.378-2.687,9.982Zm67.407,90.288h-49.032v-12.1h49.032ZM-1475,282.388a3.868,3.868,0,0,0-2.107,3.424l-.044,11.764h-36.514l-.017-18.446a3.853,3.853,0,0,0-.9-2.467c-.106-.132-10.456-12.66-8.613-23.248a82.535,82.535,0,0,1,2.151-9.947l6.962,2.932a3.845,3.845,0,0,0,2.607,2.388,3.854,3.854,0,0,0,4.714-2.721l6.875-25.522.025-.114a2.71,2.71,0,0,1,1.238-1.712,2.726,2.726,0,0,1,2.09-.334l.386.1a2.722,2.722,0,0,1,1.713,1.229,2.74,2.74,0,0,1,.333,2.09l-.4,1.642-4.53,15.715a3.851,3.851,0,0,0,2.625,4.767,3.867,3.867,0,0,0,1.082.149,3.84,3.84,0,0,0,3.686-2.783l4.381-15.18a2.772,2.772,0,0,1,2.748-.913l.386.1a2.782,2.782,0,0,1,1.721,1.238,2.745,2.745,0,0,1,.333,2.046l-4.03,13.626a3.853,3.853,0,0,0,2.6,4.785,4.3,4.3,0,0,0,1.1.149,3.847,3.847,0,0,0,3.688-2.748l3.73-12.616a2.768,2.768,0,0,1,2.854-1.054l.394.1a2.769,2.769,0,0,1,2.046,3.327l-.58,2.449-3.283,10.465a3.838,3.838,0,0,0,2.52,4.82,3.743,3.743,0,0,0,1.15.184,3.844,3.844,0,0,0,3.669-2.7l3.328-10.588.036-.132.034-.132a2.764,2.764,0,0,1,3.318-2.046l.4.088a2.756,2.756,0,0,1,2.054,3.275l-5.69,20.579c-.044.167-.078.334-.1.5s-2.432,16.549-12.16,21.484" transform="translate(6065.086 2847.11)" fill="#161615"/>
      <path id="Trazado_3810" data-name="Trazado 3810" d="M-1496.318,256.526v-17.91a10.473,10.473,0,0,0-10.465-10.456h-.394a10.448,10.448,0,0,0-5.03,1.291,10.472,10.472,0,0,0-8.191-3.951h-.4a10.489,10.489,0,0,0-4.925,1.22,10.435,10.435,0,0,0-8-3.731h-.4a10.338,10.338,0,0,0-4.152.86,10.417,10.417,0,0,0-8.727-4.715h-.4a10.47,10.47,0,0,0-10.456,10.456V239.67c-4.2-.448-7.48.351-9.965,2.432-5.38,4.5-4.846,13.442-4.319,22.08.721,11.808,11.238,21.7,15.294,25.1v6.628h-2.02a3.844,3.844,0,0,0-3.853,3.837v57.945a3.851,3.851,0,0,0,3.853,3.845h56.734a3.845,3.845,0,0,0,3.845-3.845V299.747a3.838,3.838,0,0,0-3.845-3.837h-2.4V285.384C-1495.061,275.806-1496.141,258.695-1496.318,256.526Zm-9.674,97.312h-49.034V323.4h49.034Zm0-38.129h-49.034V303.6h49.034Zm-4.882-34.934a3.863,3.863,0,0,0-1.36,2.941v12.195h-36.927v-8.472a3.85,3.85,0,0,0-1.554-3.1c-3.644-2.7-13.2-11.668-13.748-20.614-.369-6.11-.825-13.713,1.58-15.724.886-.746,2.642-.939,5.021-.571v5.233a3.844,3.844,0,0,0,3.845,3.845,3.845,3.845,0,0,0,3.846-3.845V229.591a2.771,2.771,0,0,1,2.765-2.766h.4a2.763,2.763,0,0,1,2.756,2.766v14.855a3.86,3.86,0,0,0,3.853,3.854,3.852,3.852,0,0,0,3.847-3.854V232.137a2.738,2.738,0,0,1,2.423-1.449h.4a2.762,2.762,0,0,1,2.757,2.757v11a3.851,3.851,0,0,0,3.846,3.854,3.854,3.854,0,0,0,3.853-3.854v-9.736a2.744,2.744,0,0,1,2.459-1.51h.405a2.763,2.763,0,0,1,2.756,2.765v10.377a3.86,3.86,0,0,0,3.853,3.854,3.851,3.851,0,0,0,3.845-3.854v-7.726a2.762,2.762,0,0,1,2.757-2.757h.4a2.764,2.764,0,0,1,2.767,2.757V256.7a2.776,2.776,0,0,0,.017.369C-1503.56,261.662-1503.921,274.893-1510.874,280.775Z" transform="translate(6016.729 2935.438)" fill="#161615"/>
    </g>
  </g>
</svg>
