<svg id="Grupo_1915" data-name="Grupo 1915" xmlns="http://www.w3.org/2000/svg" width="39.659" height="39.659" viewBox="0 0 39.659 39.659">
  <circle id="Elipse_199" data-name="Elipse 199" cx="19.829" cy="19.829" r="19.829" transform="translate(0 0)" fill="#161615"/>
  <g id="Grupo_1912" data-name="Grupo 1912" transform="translate(6.949 7.224)">
    <path id="Trazado_1195" data-name="Trazado 1195" d="M-596.826,65.084h12.864a6.556,6.556,0,0,0,6.549-6.549V45.671a6.556,6.556,0,0,0-6.549-6.549h-12.864a6.556,6.556,0,0,0-6.549,6.549V58.535A6.556,6.556,0,0,0-596.826,65.084Zm-3.724-19.413a3.728,3.728,0,0,1,3.724-3.724h12.864a3.728,3.728,0,0,1,3.724,3.724V58.535a3.728,3.728,0,0,1-3.724,3.724h-12.864a3.728,3.728,0,0,1-3.724-3.724Z" transform="translate(603.375 -39.122)" fill="#fff"/>
    <path id="Trazado_1196" data-name="Trazado 1196" d="M-535.6,113.585a6.694,6.694,0,0,0,6.687-6.687,6.694,6.694,0,0,0-6.687-6.686,6.694,6.694,0,0,0-6.686,6.686A6.694,6.694,0,0,0-535.6,113.585Zm0-10.547a3.865,3.865,0,0,1,3.861,3.86,3.866,3.866,0,0,1-3.861,3.862,3.867,3.867,0,0,1-3.861-3.862A3.866,3.866,0,0,1-535.6,103.038Z" transform="translate(548.58 -93.918)" fill="#fff"/>
    <path id="Trazado_1197" data-name="Trazado 1197" d="M-424.185,86.086A1.584,1.584,0,0,0-422.6,84.5a1.584,1.584,0,0,0-1.582-1.582,1.584,1.584,0,0,0-1.583,1.582A1.584,1.584,0,0,0-424.185,86.086Z" transform="translate(444.068 -78.409)" fill="#fff"/>
  </g>
</svg>
