<svg xmlns="http://www.w3.org/2000/svg" width="260" height="260" viewBox="0 0 260 260">
  <g id="_751463" data-name="751463" opacity="0.1">
    <g id="Grupo_3426" data-name="Grupo 3426" transform="translate(152.344 96.484)">
      <g id="Grupo_3425" data-name="Grupo 3425">
        <path id="Trazado_3763" data-name="Trazado 3763" d="M305.078,190a5.078,5.078,0,1,0,5.078,5.078A5.08,5.08,0,0,0,305.078,190Z" transform="translate(-300 -190)" fill="#fff"/>
      </g>
    </g>
    <g id="Grupo_3428" data-name="Grupo 3428">
      <g id="Grupo_3427" data-name="Grupo 3427">
        <path id="Trazado_3764" data-name="Trazado 3764" d="M254.049,225.326l-67.783-67.783a100.651,100.651,0,0,0,16.859-55.981A101.563,101.563,0,1,0,101.563,203.125a100.656,100.656,0,0,0,55.981-16.858L176.279,205l.008.008,49.038,49.038a20.31,20.31,0,1,0,28.723-28.723Zm-98.894-49.762h0a91.5,91.5,0,1,1,20.411-20.411A91.849,91.849,0,0,1,155.155,175.564Zm10.654,4.6a101.9,101.9,0,0,0,14.359-14.359l14.407,14.407a123.258,123.258,0,0,1-14.359,14.359Zm81.059,66.7a10.149,10.149,0,0,1-14.36,0l-45.091-45.091a133.44,133.44,0,0,0,14.359-14.359l45.093,45.093a10.147,10.147,0,0,1,0,14.358Z" fill="#fff"/>
      </g>
    </g>
    <g id="Grupo_3430" data-name="Grupo 3430" transform="translate(20.313 20.313)">
      <g id="Grupo_3429" data-name="Grupo 3429">
        <path id="Trazado_3765" data-name="Trazado 3765" d="M121.25,40a81.25,81.25,0,1,0,81.25,81.25A81.342,81.342,0,0,0,121.25,40Zm0,152.344a71.094,71.094,0,1,1,71.094-71.094A71.174,71.174,0,0,1,121.25,192.344Z" transform="translate(-40 -40)" fill="#fff"/>
      </g>
    </g>
    <g id="Grupo_3432" data-name="Grupo 3432" transform="translate(96.484 40.625)">
      <g id="Grupo_3431" data-name="Grupo 3431">
        <path id="Trazado_3766" data-name="Trazado 3766" d="M251.986,119.139A61.033,61.033,0,0,0,195.078,80a5.078,5.078,0,0,0,0,10.156,51.128,51.128,0,0,1,47.428,32.625,5.078,5.078,0,1,0,9.48-3.643Z" transform="translate(-190 -80)" fill="#fff"/>
      </g>
    </g>
  </g>
</svg>
