<svg xmlns="http://www.w3.org/2000/svg" width="200" height="198.996" viewBox="0 0 200 198.996">
  <g id="Grupo_3614" data-name="Grupo 3614" transform="translate(-689.823 -3273.375)" opacity="0.1">
    <g id="Grupo_3423" data-name="Grupo 3423" transform="translate(689.823 3273.375)">
      <path id="Trazado_2690" data-name="Trazado 2690" d="M-1382.6,300.548a17.605,17.605,0,0,0,12.2-4.9l17.259,8.57a16.722,16.722,0,0,0-.142,2.158,17.562,17.562,0,0,0,17.586,17.494,17.565,17.565,0,0,0,17.594-17.494,17.231,17.231,0,0,0-1.723-7.529l23.458-23.325a17.626,17.626,0,0,0,7.579,1.706,17.554,17.554,0,0,0,17.587-17.493,17.179,17.179,0,0,0-.8-5.23l20.377-15.186a17.635,17.635,0,0,0,9.743,2.93,17.558,17.558,0,0,0,17.593-17.487,17.559,17.559,0,0,0-17.593-17.493,17.562,17.562,0,0,0-17.587,17.493,17.338,17.338,0,0,0,.8,5.223l-20.377,15.2a17.532,17.532,0,0,0-9.744-2.937,17.563,17.563,0,0,0-17.593,17.486,17.318,17.318,0,0,0,1.722,7.544l-23.458,23.325a17.406,17.406,0,0,0-7.579-1.72,17.58,17.58,0,0,0-12.2,4.911l-17.259-8.577a16.491,16.491,0,0,0,.142-2.158,17.556,17.556,0,0,0-17.585-17.486,17.558,17.558,0,0,0-17.594,17.486,17.564,17.564,0,0,0,17.594,17.493m140.711-81.622a5.859,5.859,0,0,1,5.871,5.831,5.853,5.853,0,0,1-5.871,5.824,5.845,5.845,0,0,1-5.857-5.824,5.851,5.851,0,0,1,5.857-5.831m-46.9,34.98a5.852,5.852,0,0,1,5.865,5.824,5.864,5.864,0,0,1-5.865,5.838,5.863,5.863,0,0,1-5.864-5.838,5.851,5.851,0,0,1,5.864-5.824m-46.908,46.642a5.847,5.847,0,0,1,5.864,5.824,5.853,5.853,0,0,1-5.864,5.831,5.852,5.852,0,0,1-5.857-5.831,5.846,5.846,0,0,1,5.857-5.824m-46.9-23.325a5.852,5.852,0,0,1,5.857,5.831,5.846,5.846,0,0,1-5.857,5.824,5.847,5.847,0,0,1-5.866-5.824,5.853,5.853,0,0,1,5.866-5.831" transform="translate(1412.242 -207.264)" fill="#fff"/>
      <path id="Trazado_2691" data-name="Trazado 2691" d="M-1207.761,344.538h-6.252V221.326a5.846,5.846,0,0,0-5.867-5.824h-23.427a5.847,5.847,0,0,0-5.868,5.824V344.538h-11.714V256.313a5.841,5.841,0,0,0-5.853-5.831h-23.442a5.846,5.846,0,0,0-5.86,5.831v88.225h-11.72v-41.59a5.841,5.841,0,0,0-5.854-5.831h-23.441a5.84,5.84,0,0,0-5.853,5.831v41.59h-11.729v-64.9a5.842,5.842,0,0,0-5.853-5.838h-23.441a5.842,5.842,0,0,0-5.853,5.838v64.9h-6.252a5.851,5.851,0,0,0-5.861,5.831,5.847,5.847,0,0,0,5.861,5.831h188.279a5.846,5.846,0,0,0,5.861-5.831,5.851,5.851,0,0,0-5.861-5.831m-29.686-117.374h11.714V344.545h-11.714Zm-46.876,34.98h11.715v82.4h-11.715Zm-46.875,46.642h11.713v35.758H-1331.2Zm-46.877-23.325h11.715v59.083h-11.715Z" transform="translate(1401.901 -157.204)" fill="#fff"/>
    </g>
  </g>
</svg>
