<svg id="Grupo_1914" data-name="Grupo 1914" xmlns="http://www.w3.org/2000/svg" width="39.659" height="39.659" viewBox="0 0 39.659 39.659">
  <path id="Trazado_3767" data-name="Trazado 3767" d="M19.829,0A19.829,19.829,0,1,1,0,19.829,19.829,19.829,0,0,1,19.829,0Z" fill="#161615"/>
  <g id="Grupo_1913" data-name="Grupo 1913" transform="translate(8.144 11.382)">
    <path id="Trazado_1188" data-name="Trazado 1188" d="M22.461,79.233q-.012-.677-.106-1.712a15.57,15.57,0,0,0-.27-1.85,2.917,2.917,0,0,0-.872-1.543,2.673,2.673,0,0,0-1.562-.727,82.277,82.277,0,0,0-8.415-.313,82.274,82.274,0,0,0-8.415.313,2.644,2.644,0,0,0-1.555.727A2.933,2.933,0,0,0,.4,75.671a13.88,13.88,0,0,0-.282,1.85Q.025,78.556.013,79.233T0,81.114Q0,82.318.013,83t.106,1.712a15.511,15.511,0,0,0,.27,1.85A2.914,2.914,0,0,0,1.26,88.1a2.674,2.674,0,0,0,1.561.727,82.2,82.2,0,0,0,8.415.314,82.2,82.2,0,0,0,8.415-.314,2.645,2.645,0,0,0,1.555-.727,2.934,2.934,0,0,0,.865-1.542,13.889,13.889,0,0,0,.282-1.85q.094-1.034.106-1.712t.013-1.881Q22.474,79.91,22.461,79.233Zm-6.785,2.558L9.255,85.8a.715.715,0,0,1-.427.125.868.868,0,0,1-.389-.1.747.747,0,0,1-.414-.7V77.1a.747.747,0,0,1,.414-.7.755.755,0,0,1,.815.025l6.421,4.013a.8.8,0,0,1,0,1.354Z" transform="translate(0 -73.088)" fill="#fff"/>
  </g>
</svg>
